<mxfile host="65bd71144e">
    <diagram id="FjDQJzN2SSHT4uJmXjim" name="Page-1">
        <mxGraphModel dx="1571" dy="1511" grid="0" gridSize="10" guides="1" tooltips="1" connect="1" arrows="1" fold="1" page="0" pageScale="1" pageWidth="1169" pageHeight="827" background="#FFFFFF" math="0" shadow="0">
            <root>
                <mxCell id="0"/>
                <mxCell id="1" parent="0"/>
                <mxCell id="5" style="edgeStyle=none;html=1;fontSize=20;fontColor=#000000;strokeColor=#000099;startArrow=none;" edge="1" parent="1" source="6" target="4">
                    <mxGeometry relative="1" as="geometry"/>
                </mxCell>
                <mxCell id="15" style="edgeStyle=none;html=1;strokeColor=#000099;fontSize=20;fontColor=#000099;startArrow=none;" edge="1" parent="1" source="16" target="13">
                    <mxGeometry relative="1" as="geometry"/>
                </mxCell>
                <mxCell id="4" value="movies:Movie" style="rounded=0;whiteSpace=wrap;html=1;fontSize=20;fontColor=#000000;fillColor=none;strokeColor=#FF3333;strokeWidth=2;" vertex="1" parent="1">
                    <mxGeometry x="352" y="271" width="148" height="53" as="geometry"/>
                </mxCell>
                <mxCell id="9" style="edgeStyle=none;html=1;strokeColor=#000099;fontSize=20;fontColor=#000000;startArrow=none;" edge="1" parent="1" source="11" target="4">
                    <mxGeometry relative="1" as="geometry"/>
                </mxCell>
                <mxCell id="30" style="edgeStyle=none;html=1;strokeColor=#00CC00;strokeWidth=3;fontSize=20;fontColor=#000099;endArrow=block;endFill=0;endSize=10;" edge="1" parent="1" source="8" target="29">
                    <mxGeometry relative="1" as="geometry"/>
                </mxCell>
                <mxCell id="10" value="" style="edgeStyle=none;html=1;fontSize=20;fontColor=#000000;strokeColor=#000099;endArrow=none;" edge="1" parent="1" source="3" target="6">
                    <mxGeometry relative="1" as="geometry">
                        <mxPoint x="379.3966346153845" y="368" as="sourcePoint"/>
                        <mxPoint x="594.1995192307693" y="209" as="targetPoint"/>
                    </mxGeometry>
                </mxCell>
                <mxCell id="6" value="&lt;font color=&quot;#000099&quot; style=&quot;font-size: 20px;&quot;&gt;rdfs:domain&lt;/font&gt;" style="text;html=1;strokeColor=none;fillColor=none;align=center;verticalAlign=middle;whiteSpace=wrap;rounded=0;" vertex="1" parent="1">
                    <mxGeometry x="214" y="13" width="110" height="43" as="geometry"/>
                </mxCell>
                <mxCell id="12" value="" style="edgeStyle=none;html=1;strokeColor=#000099;fontSize=20;fontColor=#000000;endArrow=none;" edge="1" parent="1" source="8" target="11">
                    <mxGeometry relative="1" as="geometry">
                        <mxPoint x="591.0330661322646" y="406" as="sourcePoint"/>
                        <mxPoint x="625.3797595190381" y="209" as="targetPoint"/>
                    </mxGeometry>
                </mxCell>
                <mxCell id="11" value="&lt;font color=&quot;#000099&quot; style=&quot;font-size: 20px;&quot;&gt;rdfs:domain&lt;/font&gt;" style="text;html=1;strokeColor=none;fillColor=none;align=center;verticalAlign=middle;whiteSpace=wrap;rounded=0;" vertex="1" parent="1">
                    <mxGeometry x="527" y="197" width="110" height="43" as="geometry"/>
                </mxCell>
                <mxCell id="27" style="edgeStyle=none;html=1;strokeColor=#FF3399;strokeWidth=3;fontSize=20;fontColor=#000099;endArrow=block;endFill=0;endSize=10;" edge="1" parent="1" source="13" target="25">
                    <mxGeometry relative="1" as="geometry"/>
                </mxCell>
                <mxCell id="13" value="movies:Director" style="rounded=0;whiteSpace=wrap;html=1;fontSize=20;fontColor=#000000;fillColor=none;strokeColor=#FF3333;strokeWidth=2;" vertex="1" parent="1">
                    <mxGeometry x="142" y="170" width="148" height="53" as="geometry"/>
                </mxCell>
                <mxCell id="26" style="edgeStyle=none;html=1;strokeColor=#FF3399;fontSize=20;fontColor=#000099;strokeWidth=3;endArrow=block;endFill=0;endSize=10;" edge="1" parent="1" source="14" target="25">
                    <mxGeometry relative="1" as="geometry"/>
                </mxCell>
                <mxCell id="14" value="movies:Actor" style="rounded=0;whiteSpace=wrap;html=1;fontSize=20;fontColor=#000000;fillColor=none;strokeColor=#FF3333;strokeWidth=2;" vertex="1" parent="1">
                    <mxGeometry x="147" y="376" width="148" height="53" as="geometry"/>
                </mxCell>
                <mxCell id="17" value="" style="edgeStyle=none;html=1;strokeColor=#000099;fontSize=20;fontColor=#000099;endArrow=none;" edge="1" parent="1" source="3" target="16">
                    <mxGeometry relative="1" as="geometry">
                        <mxPoint x="518.2880184331798" y="301" as="sourcePoint"/>
                        <mxPoint x="221.77188940092174" y="133" as="targetPoint"/>
                    </mxGeometry>
                </mxCell>
                <mxCell id="16" value="&lt;font color=&quot;#000099&quot; style=&quot;font-size: 20px;&quot;&gt;rdfs:range&lt;/font&gt;" style="text;html=1;strokeColor=none;fillColor=none;align=center;verticalAlign=middle;whiteSpace=wrap;rounded=0;" vertex="1" parent="1">
                    <mxGeometry x="-32" y="175" width="110" height="43" as="geometry"/>
                </mxCell>
                <mxCell id="19" style="edgeStyle=none;html=1;strokeColor=#000099;fontSize=20;fontColor=#000099;startArrow=none;" edge="1" parent="1" source="20" target="14">
                    <mxGeometry relative="1" as="geometry"/>
                </mxCell>
                <mxCell id="22" style="edgeStyle=none;html=1;strokeColor=#000099;fontSize=20;fontColor=#000099;startArrow=none;" edge="1" parent="1" source="23" target="4">
                    <mxGeometry relative="1" as="geometry"/>
                </mxCell>
                <mxCell id="21" value="" style="edgeStyle=none;html=1;strokeColor=#000099;fontSize=20;fontColor=#000099;endArrow=none;" edge="1" parent="1" source="18" target="20">
                    <mxGeometry relative="1" as="geometry">
                        <mxPoint x="399" y="464.6034482758621" as="sourcePoint"/>
                        <mxPoint x="242" y="480.844827586207" as="targetPoint"/>
                    </mxGeometry>
                </mxCell>
                <mxCell id="20" value="&lt;font color=&quot;#000099&quot; style=&quot;font-size: 20px;&quot;&gt;rdfs:domain&lt;/font&gt;" style="text;html=1;strokeColor=none;fillColor=none;align=center;verticalAlign=middle;whiteSpace=wrap;rounded=0;" vertex="1" parent="1">
                    <mxGeometry x="19" y="444.5" width="110" height="43" as="geometry"/>
                </mxCell>
                <mxCell id="24" value="" style="edgeStyle=none;html=1;strokeColor=#000099;fontSize=20;fontColor=#000099;endArrow=none;" edge="1" parent="1" source="18" target="23">
                    <mxGeometry relative="1" as="geometry">
                        <mxPoint x="493.6626213592233" y="433" as="sourcePoint"/>
                        <mxPoint x="540.1529126213593" y="276" as="targetPoint"/>
                    </mxGeometry>
                </mxCell>
                <mxCell id="23" value="&lt;font color=&quot;#000099&quot; style=&quot;font-size: 20px;&quot;&gt;rdfs:range&lt;/font&gt;" style="text;html=1;strokeColor=none;fillColor=none;align=center;verticalAlign=middle;whiteSpace=wrap;rounded=0;" vertex="1" parent="1">
                    <mxGeometry x="284" y="520" width="110" height="43" as="geometry"/>
                </mxCell>
                <mxCell id="25" value="movies:Artist" style="rounded=0;whiteSpace=wrap;html=1;fontSize=20;fontColor=#000000;fillColor=none;strokeColor=#FF3333;strokeWidth=2;" vertex="1" parent="1">
                    <mxGeometry x="147" y="276" width="148" height="53" as="geometry"/>
                </mxCell>
                <mxCell id="29" value="owl:DataTypeProperty" style="rounded=0;whiteSpace=wrap;html=1;fontSize=20;fontColor=#000000;fillColor=none;strokeColor=#FF3333;strokeWidth=2;" vertex="1" parent="1">
                    <mxGeometry x="429" y="399" width="217" height="54" as="geometry"/>
                </mxCell>
                <mxCell id="35" style="edgeStyle=none;html=1;strokeColor=#FF9933;strokeWidth=2;fontSize=20;fontColor=#000099;endArrow=open;endFill=0;endSize=10;startArrow=none;" edge="1" parent="1" source="8" target="34">
                    <mxGeometry relative="1" as="geometry"/>
                </mxCell>
                <mxCell id="31" value="&lt;font style=&quot;font-size: 20px;&quot; color=&quot;#000000&quot;&gt;movies:m2&lt;/font&gt;" style="text;html=1;strokeColor=none;fillColor=none;align=center;verticalAlign=middle;whiteSpace=wrap;rounded=0;" vertex="1" parent="1">
                    <mxGeometry x="637" y="179.5" width="187" height="52" as="geometry"/>
                </mxCell>
                <mxCell id="33" style="edgeStyle=none;html=1;strokeColor=#00CC00;strokeWidth=3;fontSize=20;fontColor=#000099;endArrow=block;endFill=0;endSize=10;" edge="1" parent="1" source="32" target="4">
                    <mxGeometry relative="1" as="geometry"/>
                </mxCell>
                <mxCell id="32" value="&lt;font style=&quot;font-size: 20px;&quot; color=&quot;#000000&quot;&gt;movies:m1&lt;/font&gt;" style="text;html=1;strokeColor=none;fillColor=none;align=center;verticalAlign=middle;whiteSpace=wrap;rounded=0;" vertex="1" parent="1">
                    <mxGeometry x="332.5" y="137" width="187" height="52" as="geometry"/>
                </mxCell>
                <mxCell id="34" value="&lt;font style=&quot;font-size: 20px;&quot; color=&quot;#000000&quot;&gt;&quot;Vertigo&quot;&lt;/font&gt;" style="text;html=1;strokeColor=none;fillColor=none;align=center;verticalAlign=middle;whiteSpace=wrap;rounded=0;" vertex="1" parent="1">
                    <mxGeometry x="637" y="371" width="187" height="52" as="geometry"/>
                </mxCell>
                <mxCell id="36" value="" style="edgeStyle=none;html=1;strokeColor=#FF9933;strokeWidth=2;fontSize=20;fontColor=#000099;endArrow=none;endFill=0;endSize=10;" edge="1" parent="1" source="31" target="8">
                    <mxGeometry relative="1" as="geometry">
                        <mxPoint x="1023.3227848101267" y="249" as="sourcePoint"/>
                        <mxPoint x="1026.6772151898733" y="355" as="targetPoint"/>
                    </mxGeometry>
                </mxCell>
                <mxCell id="8" value="&lt;font color=&quot;#ff9933&quot;&gt;&lt;font style=&quot;font-size: 20px;&quot;&gt;movies&lt;/font&gt;&lt;font style=&quot;font-size: 20px;&quot;&gt;:title&lt;/font&gt;&lt;/font&gt;" style="text;html=1;strokeColor=none;fillColor=none;align=center;verticalAlign=middle;whiteSpace=wrap;rounded=0;" vertex="1" parent="1">
                    <mxGeometry x="637" y="276" width="187" height="52" as="geometry"/>
                </mxCell>
                <mxCell id="39" style="edgeStyle=none;html=1;strokeColor=#FF9933;strokeWidth=2;fontSize=20;fontColor=#FF9933;endArrow=open;endFill=0;endSize=10;startArrow=none;" edge="1" parent="1" source="3" target="38">
                    <mxGeometry relative="1" as="geometry"/>
                </mxCell>
                <mxCell id="37" value="&lt;font style=&quot;font-size: 20px;&quot; color=&quot;#000000&quot;&gt;movies:m3&lt;/font&gt;" style="text;html=1;strokeColor=none;fillColor=none;align=center;verticalAlign=middle;whiteSpace=wrap;rounded=0;" vertex="1" parent="1">
                    <mxGeometry x="-257" y="-4" width="187" height="52" as="geometry"/>
                </mxCell>
                <mxCell id="38" value="&lt;font style=&quot;font-size: 20px;&quot; color=&quot;#000000&quot;&gt;dbp:Alfred_Hitchcock&lt;/font&gt;" style="text;html=1;strokeColor=none;fillColor=none;align=center;verticalAlign=middle;whiteSpace=wrap;rounded=0;" vertex="1" parent="1">
                    <mxGeometry x="-257" y="272" width="187" height="52" as="geometry"/>
                </mxCell>
                <mxCell id="40" value="" style="edgeStyle=none;html=1;strokeColor=#FF9933;strokeWidth=2;fontSize=20;fontColor=#FF9933;endArrow=none;endFill=0;endSize=10;" edge="1" parent="1" source="37" target="3">
                    <mxGeometry relative="1" as="geometry">
                        <mxPoint x="317" y="-30" as="sourcePoint"/>
                        <mxPoint x="431" y="-30" as="targetPoint"/>
                    </mxGeometry>
                </mxCell>
                <mxCell id="3" value="&lt;font color=&quot;#ff9933&quot; style=&quot;font-size: 20px;&quot;&gt;movies:directedBy&lt;/font&gt;" style="text;html=1;strokeColor=none;fillColor=none;align=center;verticalAlign=middle;whiteSpace=wrap;rounded=0;" vertex="1" parent="1">
                    <mxGeometry x="-251.5" y="109" width="176" height="45" as="geometry"/>
                </mxCell>
                <mxCell id="43" style="edgeStyle=none;html=1;strokeColor=#FF9933;strokeWidth=2;fontSize=20;fontColor=#FF9933;endArrow=open;endFill=0;endSize=10;startArrow=none;" edge="1" parent="1" source="18" target="42">
                    <mxGeometry relative="1" as="geometry"/>
                </mxCell>
                <mxCell id="41" value="&lt;font style=&quot;font-size: 20px;&quot; color=&quot;#000000&quot;&gt;movies:a1&lt;/font&gt;" style="text;html=1;strokeColor=none;fillColor=none;align=center;verticalAlign=middle;whiteSpace=wrap;rounded=0;" vertex="1" parent="1">
                    <mxGeometry x="-189" y="429" width="176" height="45" as="geometry"/>
                </mxCell>
                <mxCell id="42" value="&lt;font style=&quot;font-size: 20px;&quot; color=&quot;#000000&quot;&gt;movies:m4&lt;/font&gt;" style="text;html=1;strokeColor=none;fillColor=none;align=center;verticalAlign=middle;whiteSpace=wrap;rounded=0;" vertex="1" parent="1">
                    <mxGeometry x="-189" y="620" width="176" height="45" as="geometry"/>
                </mxCell>
                <mxCell id="44" value="" style="edgeStyle=none;html=1;strokeColor=#FF9933;strokeWidth=2;fontSize=20;fontColor=#FF9933;endArrow=none;endFill=0;endSize=10;" edge="1" parent="1" source="41" target="18">
                    <mxGeometry relative="1" as="geometry">
                        <mxPoint x="651.0353260869565" y="585" as="sourcePoint"/>
                        <mxPoint x="471.4646739130435" y="632" as="targetPoint"/>
                    </mxGeometry>
                </mxCell>
                <mxCell id="18" value="&lt;font color=&quot;#ff9933&quot; style=&quot;font-size: 20px;&quot;&gt;movies:playsIn&lt;/font&gt;" style="text;html=1;strokeColor=none;fillColor=none;align=center;verticalAlign=middle;whiteSpace=wrap;rounded=0;" vertex="1" parent="1">
                    <mxGeometry x="-189" y="527" width="176" height="45" as="geometry"/>
                </mxCell>
            </root>
        </mxGraphModel>
    </diagram>
</mxfile>